<svg width="41" height="41" viewBox="0 0 41 41" fill="none" xmlns="http://www.w3.org/2000/svg">
<g filter="url(#filter0_d_375_1529)">
<circle cx="18.5" cy="18.5001" r="15.5" fill="url(#paint0_linear_375_1529)"/>
</g>
<g clip-path="url(#clip0_375_1529)">
<path d="M15.9026 20.5597H23.0656C23.8779 20.5597 24.5405 19.8971 24.5405 19.0848V16.0711C24.5405 16.0684 24.5405 16.0631 24.5405 16.0604C24.5405 16.0524 24.5405 16.047 24.5405 16.039C24.5405 16.0337 24.5405 16.0283 24.5378 16.023C24.5378 16.0176 24.5351 16.0096 24.5351 16.0043C24.5351 15.9989 24.5324 15.9936 24.5324 15.9883C24.5298 15.9829 24.5298 15.9776 24.5271 15.9696C24.5244 15.9642 24.5244 15.9589 24.5218 15.9535C24.5191 15.9482 24.5191 15.9428 24.5164 15.9375C24.5137 15.9322 24.5111 15.9268 24.5084 15.9188C24.5057 15.9134 24.5031 15.9081 24.5004 15.9054C24.4977 15.9001 24.495 15.8947 24.4924 15.8894C24.4897 15.8841 24.487 15.8814 24.4844 15.876C24.4817 15.8707 24.4763 15.8654 24.4737 15.86C24.471 15.8547 24.4683 15.852 24.463 15.8467C24.4603 15.8413 24.455 15.8386 24.4523 15.8333C24.4496 15.828 24.4443 15.8253 24.4416 15.8199C24.4389 15.8146 24.4336 15.8119 24.4309 15.8092C24.4256 15.8039 24.4229 15.8012 24.4176 15.7959C24.4122 15.7932 24.4095 15.7879 24.4042 15.7852C24.3989 15.7825 24.3935 15.7772 24.3882 15.7745C24.3828 15.7718 24.3802 15.7692 24.3748 15.7665C24.3695 15.7638 24.3641 15.7612 24.3588 15.7558C24.3534 15.7531 24.3481 15.7505 24.3428 15.7478C24.3374 15.7451 24.3321 15.7425 24.3267 15.7398C24.3214 15.7371 24.316 15.7344 24.3107 15.7318C24.3053 15.7291 24.3 15.7291 24.2947 15.7264C24.2893 15.7238 24.2813 15.7211 24.276 15.7211C24.2706 15.7211 24.2653 15.7184 24.2626 15.7184C24.2546 15.7157 24.2492 15.7157 24.2412 15.7157C24.2386 15.7157 24.2359 15.7131 24.2305 15.7131L15.1519 14.46V13.1936C15.1519 13.1802 15.1519 13.1669 15.1492 13.1562C15.1492 13.1535 15.1492 13.1508 15.1465 13.1455C15.1465 13.1375 15.1438 13.1295 15.1438 13.1214C15.1412 13.1134 15.1412 13.1081 15.1385 13.1001C15.1385 13.0947 15.1358 13.0921 15.1358 13.0867C15.1332 13.0787 15.1305 13.0707 15.1278 13.0627C15.1278 13.06 15.1251 13.0547 15.1251 13.052C15.1225 13.044 15.1198 13.0386 15.1145 13.0306C15.1118 13.0279 15.1118 13.0226 15.1091 13.0199C15.1064 13.0146 15.1038 13.0092 15.0984 13.0039C15.0958 12.9985 15.0931 12.9959 15.0904 12.9905C15.0877 12.9852 15.0851 12.9825 15.0824 12.9772C15.0797 12.9718 15.0744 12.9665 15.0717 12.9611C15.069 12.9585 15.0664 12.9558 15.0637 12.9531C15.0584 12.9478 15.053 12.9424 15.0477 12.9371C15.045 12.9344 15.0423 12.9318 15.0397 12.9291C15.0343 12.9237 15.029 12.9184 15.0209 12.9131C15.0183 12.9104 15.0129 12.9077 15.0103 12.905C15.0049 12.8997 14.9996 12.897 14.9942 12.8917C14.9862 12.8863 14.9782 12.881 14.9729 12.8783C14.9702 12.8756 14.9675 12.8756 14.9648 12.873C14.9542 12.8676 14.9408 12.8623 14.9301 12.8569L12.961 12.0287C12.7767 11.9512 12.5656 12.0367 12.4881 12.2211C12.4106 12.4054 12.4961 12.6165 12.6805 12.694L14.4278 13.4314V15.0665V15.3257V17.3135V19.0902V21.3345C14.4278 22.0826 14.9889 22.7024 15.7129 22.7959C15.582 23.015 15.5045 23.2715 15.5045 23.544C15.5045 24.3482 16.1591 25.0001 16.9607 25.0001C17.7622 25.0001 18.4168 24.3456 18.4168 23.544C18.4168 23.2768 18.3446 23.023 18.2164 22.8093H21.4599C21.3317 23.0257 21.2595 23.2768 21.2595 23.544C21.2595 24.3482 21.9141 25.0001 22.7156 25.0001C23.5172 25.0001 24.1718 24.3456 24.1718 23.544C24.1718 22.7425 23.5172 22.0879 22.7156 22.0879H15.9026C15.4858 22.0879 15.1492 21.7486 15.1492 21.3345V20.3566C15.3683 20.4848 15.6274 20.5597 15.9026 20.5597ZM17.6981 23.5414C17.6981 23.9475 17.3668 24.2761 16.9633 24.2761C16.5599 24.2761 16.2286 23.9448 16.2286 23.5414C16.2286 23.1379 16.5599 22.8066 16.9633 22.8066C17.3668 22.8066 17.6981 23.1352 17.6981 23.5414ZM23.4531 23.5414C23.4531 23.9475 23.1218 24.2761 22.7183 24.2761C22.3149 24.2761 21.9836 23.9448 21.9836 23.5414C21.9836 23.1379 22.3149 22.8066 22.7183 22.8066C23.1218 22.8066 23.4531 23.1352 23.4531 23.5414ZM23.0656 19.8383H15.9026C15.4858 19.8383 15.1492 19.499 15.1492 19.0848V17.3081V15.3203V15.1867L23.8191 16.381V19.0822C23.8191 19.5016 23.4798 19.8383 23.0656 19.8383Z" fill="white"/>
</g>
<defs>
<filter id="filter0_d_375_1529" x="0" y="0.00012207" width="41" height="41" filterUnits="userSpaceOnUse" color-interpolation-filters="sRGB">
<feFlood flood-opacity="0" result="BackgroundImageFix"/>
<feColorMatrix in="SourceAlpha" type="matrix" values="0 0 0 0 0 0 0 0 0 0 0 0 0 0 0 0 0 0 127 0" result="hardAlpha"/>
<feOffset dx="2" dy="2"/>
<feGaussianBlur stdDeviation="2.5"/>
<feColorMatrix type="matrix" values="0 0 0 0 0.921569 0 0 0 0 0.129412 0 0 0 0 0.180392 0 0 0 0.15 0"/>
<feBlend mode="normal" in2="BackgroundImageFix" result="effect1_dropShadow_375_1529"/>
<feBlend mode="normal" in="SourceGraphic" in2="effect1_dropShadow_375_1529" result="shape"/>
</filter>
<linearGradient id="paint0_linear_375_1529" x1="3" y1="4.03344" x2="35.554" y2="5.08496" gradientUnits="userSpaceOnUse">
<stop stop-color="#FF5863"/>
<stop offset="1" stop-color="#EB212E"/>
<stop offset="1" stop-color="#EB212E"/>
</linearGradient>
<clipPath id="clip0_375_1529">
<rect width="13" height="13" fill="white" transform="translate(12 12.0001)"/>
</clipPath>
</defs>
</svg>
