<svg width="9" height="9" viewBox="0 0 9 9" fill="none" xmlns="http://www.w3.org/2000/svg">
<path d="M7.58836 2.84383C7.58813 2.93333 7.6243 3.01403 7.68272 3.07248C7.74113 3.13092 7.8218 3.16711 7.91102 3.16711C8.08958 3.167 8.23437 3.02214 8.23437 2.8436L8.23551 1.24888C8.23551 1.20642 8.22718 1.16452 8.21075 1.1248C8.17824 1.0466 8.11651 0.983478 8.03847 0.950602C8.03756 0.950145 8.03687 0.950373 8.03619 0.950145C8.00207 0.936104 7.96579 0.930397 7.92974 0.92857C7.9238 0.928342 7.9189 0.92526 7.91274 0.925032L7.91205 0.92526L6.35236 0.925945C6.17403 0.925831 6.02924 1.07069 6.02924 1.24923C6.02912 1.33861 6.06518 1.41943 6.12359 1.47787C6.18213 1.53644 6.26279 1.57239 6.35213 1.57228L7.1322 1.57194L1.39055 7.316L1.39089 6.536C1.391 6.35758 1.24644 6.21294 1.068 6.21294C0.889438 6.21306 0.74465 6.35792 0.744765 6.53634L0.744194 8.09715C0.744194 8.18665 0.780363 8.26735 0.83878 8.3258C0.897197 8.38425 0.977863 8.42043 1.0672 8.42032L2.66146 8.41929C2.83991 8.41929 2.98481 8.27432 2.9847 8.0959C2.98481 7.91748 2.84025 7.77284 2.66181 7.77284L1.84739 7.7733L7.58893 2.02935L7.58836 2.84383Z" fill="#393939"/>
</svg>
