<svg width="13" height="13" viewBox="0 0 13 13" fill="none" xmlns="http://www.w3.org/2000/svg">
<path d="M3.90263 8.55966H11.0656C11.8779 8.55966 12.5405 7.89706 12.5405 7.08484V4.07108C12.5405 4.06841 12.5405 4.06307 12.5405 4.0604C12.5405 4.05238 12.5405 4.04704 12.5405 4.03902C12.5405 4.03368 12.5405 4.02833 12.5378 4.02299C12.5378 4.01765 12.5351 4.00963 12.5351 4.00429C12.5351 3.99894 12.5324 3.9936 12.5324 3.98826C12.5298 3.98291 12.5298 3.97757 12.5271 3.96956C12.5244 3.96421 12.5244 3.95887 12.5218 3.95352C12.5191 3.94818 12.5191 3.94284 12.5164 3.93749C12.5137 3.93215 12.5111 3.92681 12.5084 3.91879C12.5057 3.91345 12.5031 3.9081 12.5004 3.90543C12.4977 3.90009 12.495 3.89475 12.4924 3.8894C12.4897 3.88406 12.487 3.88139 12.4844 3.87604C12.4817 3.8707 12.4763 3.86536 12.4737 3.86001C12.471 3.85467 12.4683 3.852 12.463 3.84665C12.4603 3.84131 12.455 3.83864 12.4523 3.83329C12.4496 3.82795 12.4443 3.82528 12.4416 3.81994C12.4389 3.81459 12.4336 3.81192 12.4309 3.80925C12.4256 3.80391 12.4229 3.80123 12.4176 3.79589C12.4122 3.79322 12.4095 3.78787 12.4042 3.7852C12.3989 3.78253 12.3935 3.77719 12.3882 3.77452C12.3828 3.77184 12.3802 3.76917 12.3748 3.7665C12.3695 3.76383 12.3641 3.76116 12.3588 3.75581C12.3534 3.75314 12.3481 3.75047 12.3428 3.7478C12.3374 3.74513 12.3321 3.74245 12.3267 3.73978C12.3214 3.73711 12.316 3.73444 12.3107 3.73177C12.3053 3.7291 12.3 3.7291 12.2947 3.72642C12.2893 3.72375 12.2813 3.72108 12.276 3.72108C12.2706 3.72108 12.2653 3.71841 12.2626 3.71841C12.2546 3.71574 12.2492 3.71574 12.2412 3.71574C12.2386 3.71574 12.2359 3.71307 12.2305 3.71307L3.15187 2.46001V1.19359C3.15187 1.18023 3.15187 1.16687 3.14919 1.15618C3.14919 1.15351 3.14919 1.15084 3.14652 1.14549C3.14652 1.13748 3.14385 1.12946 3.14385 1.12145C3.14118 1.11343 3.14118 1.10809 3.13851 1.10007C3.13851 1.09473 3.13583 1.09206 3.13583 1.08672C3.13316 1.0787 3.13049 1.07068 3.12782 1.06267C3.12782 1.06 3.12515 1.05465 3.12515 1.05198C3.12248 1.04397 3.1198 1.03862 3.11446 1.03061C3.11179 1.02794 3.11179 1.02259 3.10912 1.01992C3.10645 1.01458 3.10377 1.00923 3.09843 1.00389C3.09576 0.998547 3.09309 0.995875 3.09041 0.990532C3.08774 0.985188 3.08507 0.982516 3.0824 0.977173C3.07973 0.971829 3.07438 0.966486 3.07171 0.961142C3.06904 0.958471 3.06637 0.955799 3.0637 0.953127C3.05835 0.947783 3.05301 0.94244 3.04767 0.937096C3.04499 0.934425 3.04232 0.931753 3.03965 0.929081C3.03431 0.923738 3.02896 0.918394 3.02095 0.91305C3.01828 0.910379 3.01293 0.907707 3.01026 0.905035C3.00492 0.899692 2.99957 0.89702 2.99423 0.891676C2.98622 0.886333 2.9782 0.880989 2.97286 0.878317C2.97018 0.875646 2.96751 0.875646 2.96484 0.872974C2.95415 0.86763 2.9408 0.862287 2.93011 0.856943L0.961014 0.0286947C0.776662 -0.0487866 0.565592 0.03671 0.488111 0.221062C0.41063 0.405414 0.496126 0.616484 0.680479 0.693965L2.42782 1.43137V3.0665V3.32566V5.31346V7.09018V9.33447C2.42782 10.0826 2.98889 10.7024 3.71294 10.7959C3.58202 11.015 3.50454 11.2715 3.50454 11.544C3.50454 12.3482 4.15912 13.0001 4.96065 13.0001C5.76218 13.0001 6.41677 12.3456 6.41677 11.544C6.41677 11.2768 6.34463 11.023 6.21638 10.8093H9.45991C9.33167 11.0257 9.25953 11.2768 9.25953 11.544C9.25953 12.3482 9.91411 13.0001 10.7156 13.0001C11.5172 13.0001 12.1718 12.3456 12.1718 11.544C12.1718 10.7425 11.5172 10.0879 10.7156 10.0879H3.90263C3.48584 10.0879 3.14919 9.74859 3.14919 9.33447V8.3566C3.36828 8.48485 3.62744 8.55966 3.90263 8.55966ZM5.69806 11.5414C5.69806 11.9475 5.36676 12.2761 4.96332 12.2761C4.55989 12.2761 4.22859 11.9448 4.22859 11.5414C4.22859 11.1379 4.55989 10.8066 4.96332 10.8066C5.36676 10.8066 5.69806 11.1352 5.69806 11.5414ZM11.4531 11.5414C11.4531 11.9475 11.1218 12.2761 10.7183 12.2761C10.3149 12.2761 9.98358 11.9448 9.98358 11.5414C9.98358 11.1379 10.3149 10.8066 10.7183 10.8066C11.1218 10.8066 11.4531 11.1352 11.4531 11.5414ZM11.0656 7.83828H3.90263C3.48584 7.83828 3.14919 7.49896 3.14919 7.08484V5.30811V3.32031V3.18673L11.8191 4.38101V7.08217C11.8191 7.50163 11.4798 7.83828 11.0656 7.83828Z" fill="white"/>
</svg>
