<?xml version="1.0" encoding="utf-8"?>
<!-- Generator: Adobe Illustrator 26.1.0, SVG Export Plug-In . SVG Version: 6.00 Build 0)  -->
<svg version="1.1" id="Слой_1" xmlns="http://www.w3.org/2000/svg" xmlns:xlink="http://www.w3.org/1999/xlink" x="0px" y="0px"
	 viewBox="0 0 10 10" style="enable-background:new 0 0 10 10;" xml:space="preserve">
<style type="text/css">
	.st0{fill:#393939;}
</style>
<path class="st0" d="M9.1,0H0.9C0.4,0,0,0.4,0,0.9v8.2C0,9.6,0.4,10,0.9,10h8.2C9.6,10,10,9.6,10,9.1V0.9C10,0.4,9.6,0,9.1,0z
	 M9.4,9.1c0,0.2-0.1,0.3-0.3,0.3H0.9c-0.2,0-0.3-0.1-0.3-0.3V0.9c0-0.2,0.1-0.3,0.3-0.3h8.2c0.2,0,0.3,0.1,0.3,0.3V9.1z"/>
<path class="st0" d="M8.4,2.4C7.4,1.7,6.2,1.3,5,1.3c-1.2,0-2.4,0.4-3.4,1.1c-0.1,0-0.1,0.1-0.1,0.2c0,0.1,0,0.2,0.1,0.2l1.5,2.1
	C3.2,5,3.3,5,3.3,5c0.1,0,0.1,0,0.2-0.1C3.9,4.6,4.5,4.4,5,4.4c0.5,0,1.1,0.2,1.5,0.5C6.6,5,6.8,5,6.9,4.9l1.5-2.1
	c0-0.1,0.1-0.1,0.1-0.2C8.5,2.5,8.4,2.5,8.4,2.4z M6.6,4.3C6.2,4.1,5.8,3.9,5.3,3.9V3c0-0.2-0.1-0.3-0.3-0.3S4.7,2.8,4.7,3v0.9
	c-0.5,0-0.9,0.2-1.3,0.4L2.2,2.7C3,2.2,4,1.9,5,1.9c1,0,2,0.3,2.8,0.8L6.6,4.3z"/>
</svg>
